<svg version="1.1" xmlns="http://www.w3.org/2000/svg" xmlns:xlink="http://www.w3.org/1999/xlink" width="40px" height="40px" viewBox="0,0,256,256"><g fill="#999999" fill-rule="nonzero" stroke="none" stroke-width="1" stroke-linecap="butt" stroke-linejoin="miter" stroke-miterlimit="10" stroke-dasharray="" stroke-dashoffset="0" font-family="none" font-weight="none" font-size="none" text-anchor="none" style="mix-blend-mode: normal"><g transform="translate(2426.24,-2438.4) scale(6.4,6.4)"><g><path d="M-359.1,410.2c4.7,0 8.5,-3.8 8.5,-8.5v-12.2c0,-4.7 -3.8,-8.5 -8.5,-8.5c-4.7,0 -8.5,3.8 -8.5,8.5v12.2c0,4.7 3.8,8.5 8.5,8.5zM-365.6,400.6h4c0.6,0 1,-0.4 1,-1c0,-0.6 -0.4,-1 -1,-1h-4v-2h4c0.6,0 1,-0.4 1,-1c0,-0.6 -0.4,-1 -1,-1h-4v-2h4c0.6,0 1,-0.4 1,-1c0,-0.6 -0.4,-1 -1,-1h-4v-1.1c0,-3.6 2.9,-6.5 6.5,-6.5c3.6,0 6.5,2.9 6.5,6.5v1.1h-4c-0.6,0 -1,0.4 -1,1c0,0.5 0.5,1 1,1h4v2h-4c-0.6,0 -1,0.4 -1,1c0,0.5 0.5,1 1,1h4v2h-4c-0.6,0 -1,0.4 -1,1c0,0.5 0.5,1 1,1h4v1.1c0,3.6 -2.9,6.5 -6.5,6.5c-3.6,0 -6.5,-2.9 -6.5,-6.5z"></path><path d="M-346.6,401.6c0,-0.5 -0.5,-1 -1,-1c-0.5,0 -1,0.5 -1,1c0,5.8 -4.7,10.5 -10.5,10.5c-5.8,0 -10.5,-4.7 -10.5,-10.5c0,-0.5 -0.5,-1 -1,-1c-0.5,0 -1,0.5 -1,1c0,6.6 5.1,12 11.5,12.5v4.9h-6.5c-0.5,0 -1,0.4 -1,1c0,0.6 0.5,1 1,1h15c0.5,0 1,-0.4 1,-1c0,-0.6 -0.5,-1 -1,-1h-6.5v-4.9c6.4,-0.5 11.5,-5.9 11.5,-12.5z"></path></g></g></g></svg>