<svg version="1.1" xmlns="http://www.w3.org/2000/svg" xmlns:xlink="http://www.w3.org/1999/xlink" width="24px" height="24px" viewBox="0,0,256,256"><g fill="none" fill-rule="nonzero" stroke="none" stroke-width="1" stroke-linecap="butt" stroke-linejoin="miter" stroke-miterlimit="10" stroke-dasharray="" stroke-dashoffset="0" font-family="none" font-weight="none" font-size="none" text-anchor="none" style="mix-blend-mode: normal"><g transform="scale(10.66667,10.66667)"><g><path d="M0,0h24v24h-24z" fill="none"></path><path d="M13,6v-2h-8v-2h10v4h1c0.55228,0 1,0.44772 1,1v2.2l5.213,-3.65c0.1528,-0.10711 0.35252,-0.12022 0.51801,-0.03401c0.16549,0.08621 0.2692,0.25741 0.26899,0.44401v12.08c0.00021,0.1866 -0.1035,0.35779 -0.26899,0.44401c-0.16549,0.08621 -0.36522,0.0731 -0.51801,-0.03401l-5.213,-3.65v4.2c0,0.55228 -0.44772,1 -1,1h-14c-0.55228,0 -1,-0.44772 -1,-1v-12c0,-0.55228 0.44772,-1 1,-1zM15,8h-12v10h12zM17,12.359l4,2.8v-6.319l-4,2.8v0.718zM5,10h2v2h-2z" fill="#999999"></path></g></g></g></svg>